<svg width="361" height="289" viewBox="0 0 361 289" fill="none" xmlns="http://www.w3.org/2000/svg">
<path d="M300.994 260.311C240.063 295.584 92.244 297.693 28.8725 263.593C2.36361 249.32 -7.64684 213.249 6.26159 189.316C51.4964 131.465 101.497 111.054 129.288 93.797C215.309 40.3643 292.285 89.1194 309.702 121.272C342 179 332 242.36 300.994 260.311Z" fill="#D8D8D8"/>
<path d="M162.988 33.4266C162.289 33.4266 161.74 32.8749 161.74 32.1727V1.25381C161.74 0.551676 162.289 0 162.988 0C163.686 0 164.235 0.551676 164.235 1.25381V32.1727C164.235 32.8749 163.686 33.4266 162.988 33.4266Z" fill="#D8D8D8"/>
<path d="M193.699 37.8651C193.374 37.8651 193.05 37.7397 192.825 37.4889C192.326 36.9874 192.326 36.21 192.825 35.7085L214.58 13.8421C215.079 13.3406 215.852 13.3406 216.351 13.8421C216.85 14.3436 216.85 15.121 216.351 15.6225L194.597 37.4889C194.347 37.7397 194.023 37.8651 193.724 37.8651H193.699Z" fill="#D8D8D8"/>
<path d="M132.002 37.8651C131.678 37.8651 131.353 37.7397 131.129 37.4889L109.374 15.6225C108.875 15.121 108.875 14.3436 109.374 13.8421C109.873 13.3406 110.647 13.3406 111.146 13.8421L132.9 35.7085C133.399 36.21 133.399 36.9874 132.9 37.4889C132.651 37.7397 132.326 37.8651 132.027 37.8651H132.002Z" fill="#D8D8D8"/>
<path d="M343 100.991C343 105.949 347.033 109.981 351.991 109.981C356.959 109.981 360.981 105.949 360.981 100.991C360.981 96.0222 356.959 92 351.991 92C347.033 92 343 96.0222 343 100.991Z" fill="#DDDDDD"/>
<path d="M-0.000169218 84.0763C-0.000169218 87.4316 2.7207 90.1525 6.07609 90.1525C9.43147 90.1525 12.1523 87.4316 12.1523 84.0763C12.1523 80.7209 9.43147 78 6.07609 78C2.7207 78 -0.000169218 80.7209 -0.000169218 84.0763Z" fill="#DDDDDD"/>
<path d="M298.679 189.345C303.282 189.345 307.025 193.087 307.025 197.69C307.025 202.293 303.282 206.036 298.679 206.036C294.076 206.036 290.334 202.293 290.334 197.69C290.334 193.087 294.076 189.345 298.679 189.345ZM298.679 210.38C305.67 210.38 311.37 204.681 311.37 197.69C311.37 190.7 305.67 185 298.679 185C291.689 185 286 190.7 286 197.69C286 204.681 291.689 210.38 298.679 210.38Z" fill="#EFEFEF"/>
<path d="M25.5289 118.657C29.8737 118.657 33.4011 122.184 33.4011 126.529C33.4011 130.874 29.8737 134.401 25.5289 134.401C21.1841 134.401 17.6566 130.874 17.6566 126.529C17.6566 122.184 21.1841 118.657 25.5289 118.657ZM25.5289 138.058C31.8847 138.058 37.0576 132.885 37.0576 126.529C37.0576 120.173 31.8847 115 25.5289 115C19.173 115 14.0001 120.173 14.0001 126.529C14.0001 132.885 19.173 138.058 25.5289 138.058Z" fill="#DDDDDD"/>
<path d="M52.3826 76.5235L47.2742 71.4152C45.575 69.716 45.575 66.9736 47.2742 65.2744C48.9626 63.5752 51.7158 63.5752 53.4042 65.2744L58.5233 70.3828L63.6317 65.2744C65.3309 63.5752 68.0733 63.5752 69.7725 65.2744C71.4717 66.9736 71.4717 69.716 69.7725 71.4152L64.6641 76.5235L69.7725 81.6319C71.4717 83.3311 71.4717 86.0735 69.7725 87.7727C68.9229 88.6223 67.8152 89.0417 66.6967 89.0417C65.589 89.0417 64.4813 88.6223 63.6317 87.7727L58.5233 82.6643L53.4042 87.7727C52.5654 88.6223 51.4469 89.0417 50.3392 89.0417C49.2315 89.0417 48.113 88.6223 47.2742 87.7727C45.575 86.0735 45.575 83.3311 47.2742 81.6319L52.3826 76.5235Z" fill="#D8D8D8"/>
<path d="M300.186 71.2618L297.637 68.7022C296.788 67.8634 296.788 66.4868 297.637 65.6372C298.476 64.7876 299.853 64.7876 300.702 65.6372L303.251 68.1968L305.81 65.6372C306.66 64.7876 308.037 64.7876 308.875 65.6372C309.725 66.4868 309.725 67.8634 308.875 68.7022L306.327 71.2618L308.875 73.8213C309.725 74.6602 309.725 76.0367 308.875 76.8863C308.456 77.3058 307.897 77.5209 307.348 77.5209C306.789 77.5209 306.23 77.3058 305.81 76.8863L303.251 74.3268L300.702 76.8863C300.283 77.3058 299.723 77.5209 299.164 77.5209C298.616 77.5209 298.057 77.3058 297.637 76.8863C296.788 76.0367 296.788 74.6602 297.637 73.8213L300.186 71.2618Z" fill="#D8D8D8"/>
<path d="M176.39 112.677C176.553 111.028 178.021 109.823 179.67 109.985L272.208 119.088C273.857 119.251 275.063 120.719 274.9 122.368L261.793 255.613C261.63 257.262 260.162 258.467 258.513 258.305L165.975 249.202C164.326 249.039 163.121 247.571 163.283 245.922L176.39 112.677Z" fill="#F9F8F8"/>
<path d="M176.39 112.677C176.553 111.028 178.021 109.823 179.67 109.985L272.208 119.088C273.857 119.251 275.063 120.719 274.9 122.368L261.793 255.613C261.63 257.262 260.162 258.467 258.513 258.305L165.975 249.202C164.326 249.039 163.121 247.571 163.283 245.922L176.39 112.677Z" fill="#F9F8F8"/>
<path d="M176.39 112.677C176.553 111.028 178.021 109.823 179.67 109.985L272.208 119.088C273.857 119.251 275.063 120.719 274.9 122.368L261.793 255.613C261.63 257.262 260.162 258.467 258.513 258.305L165.975 249.202C164.326 249.039 163.121 247.571 163.283 245.922L176.39 112.677Z" fill="#F4F3F3"/>
<rect x="150.262" y="106" width="111.312" height="157.196" rx="3" transform="rotate(2.10417 150.262 106)" fill="#F9F8F8"/>
<rect x="150.262" y="106" width="111.312" height="157.196" rx="3" transform="rotate(2.10417 150.262 106)" fill="#F9F8F8"/>
<rect x="150.262" y="106" width="111.312" height="157.196" rx="3" transform="rotate(2.10417 150.262 106)" fill="#F9F8F8"/>
<rect x="89" y="127.697" width="102.728" height="145.074" rx="3" transform="rotate(-5.52182 89 127.697)" fill="#F9F8F8"/>
<rect x="89" y="127.697" width="102.728" height="145.074" rx="3" transform="rotate(-5.52182 89 127.697)" fill="#F9F8F8"/>
<rect x="89" y="127.697" width="102.728" height="145.074" rx="3" transform="rotate(-5.52182 89 127.697)" fill="#F9F8F8"/>
<path d="M210.644 66H103.656C101.999 66 100.656 67.3431 100.656 69V271C100.656 272.657 101.999 274 103.656 274H244.656C246.313 274 247.656 272.657 247.656 271V103.012L210.644 66Z" fill="white"/>
<path d="M158.942 185.883C158.942 190.228 155.414 193.766 151.07 193.766C146.714 193.766 143.187 190.228 143.187 185.883C143.187 181.527 146.714 178 151.07 178C155.414 178 158.942 181.527 158.942 185.883Z" fill="#BBBBBB"/>
<path d="M199.488 185.883C199.488 190.228 195.96 193.766 191.615 193.766C187.26 193.766 183.732 190.228 183.732 185.883C183.732 181.527 187.26 178 191.615 178C195.96 178 199.488 181.527 199.488 185.883Z" fill="#BBBBBB"/>
<path d="M142.088 205.675C142.088 208.837 139.529 211.386 136.367 211.386C133.216 211.386 130.656 208.837 130.656 205.675C130.656 202.514 133.216 199.954 136.367 199.954C139.529 199.954 142.088 202.514 142.088 205.675Z" fill="#FA538D" fill-opacity="0.2"/>
<path d="M209.715 205.832C209.715 208.994 207.166 211.543 204.005 211.543C200.843 211.543 198.283 208.994 198.283 205.832C198.283 202.671 200.843 200.111 204.005 200.111C207.166 200.111 209.715 202.671 209.715 205.832Z" fill="#FEDDE8"/>
<path d="M184.097 205.144C183.451 205.144 182.924 204.617 182.924 203.961C182.924 202.595 178.935 200.606 172.686 200.606C166.438 200.606 162.448 202.595 162.448 203.961C162.448 204.617 161.921 205.144 161.276 205.144C160.62 205.144 160.104 204.617 160.104 203.961C160.104 196.487 185.269 196.487 185.269 203.961C185.269 204.617 184.742 205.144 184.097 205.144Z" fill="#BBBBBB"/>
<path d="M211.656 76.9569L215.993 103.731C216.336 105.845 218.327 107.281 220.44 106.938L247.214 102.601L211.656 76.9569Z" fill="#D8D8D8"/>
<path d="M210.656 66V98.3727C210.656 100.928 212.728 103 215.284 103H247.656L210.656 66Z" fill="#F4F3F3"/>
</svg>
